<?xml version="1.0" standalone="no"?>
<!DOCTYPE svg PUBLIC "-//W3C//DTD SVG 20010904//EN"
 "http://www.w3.org/TR/2001/REC-SVG-20010904/DTD/svg10.dtd">
<svg version="1.0" xmlns="http://www.w3.org/2000/svg"
 width="460.000000pt" height="460.000000pt" viewBox="0 0 460.000000 460.000000"
 preserveAspectRatio="xMidYMid meet">
<metadata>
Created by potrace 1.14, written by Peter Selinger 2001-2017
</metadata>
<g transform="translate(0.000000,460.000000) scale(0.100000,-0.100000)"
fill="#000000" stroke="none">
<path d="M3990 4414 c-23 -24 -42 -34 -64 -34 -40 0 -77 -10 -71 -19 2 -4 -25
-4 -61 1 -71 10 -105 -2 -83 -28 8 -10 4 -13 -23 -11 -18 1 -38 6 -44 9 -13 9
-150 2 -166 -8 -7 -4 -43 -7 -81 -7 -48 1 -82 -4 -114 -18 -24 -10 -58 -19
-75 -19 -28 0 -30 -2 -25 -29 3 -15 1 -33 -6 -40 -28 -28 -84 2 -72 38 5 17 0
21 -38 26 -38 6 -51 3 -95 -25 -29 -17 -52 -36 -52 -42 0 -5 -9 -7 -19 -3 -13
4 -31 -4 -54 -25 -19 -16 -41 -30 -49 -30 -8 0 -20 -11 -26 -25 -10 -21 -18
-25 -57 -25 -25 0 -45 -4 -45 -9 0 -5 -12 -11 -27 -13 -20 -2 -29 -9 -31 -25
-4 -27 -22 -31 -22 -5 -1 15 -2 15 -15 -2 -8 -11 -15 -16 -15 -12 0 4 -13 -2
-29 -13 -16 -12 -34 -21 -40 -21 -6 0 -11 -4 -11 -9 0 -5 -12 -14 -27 -20 -39
-14 -57 -31 -77 -68 -10 -20 -24 -33 -35 -33 -11 0 -21 -4 -23 -9 -5 -15 -103
-88 -128 -96 -27 -9 -75 -45 -154 -116 -28 -25 -62 -49 -76 -53 -14 -3 -40
-26 -58 -51 -18 -25 -38 -45 -46 -45 -7 0 -23 -11 -35 -24 -22 -24 -66 -31
-87 -15 -6 5 -38 12 -71 15 -67 7 -109 -7 -99 -33 4 -9 1 -22 -5 -29 -9 -11
-8 -18 2 -31 11 -12 11 -17 2 -20 -7 -3 -29 -16 -50 -30 -24 -16 -59 -28 -95
-33 -60 -7 -62 -6 -58 38 1 18 -5 24 -30 29 -18 3 -34 12 -37 20 -7 17 -49 9
-75 -14 -16 -14 -20 -13 -48 10 -16 14 -40 29 -52 32 -13 4 -30 13 -38 21 -23
19 -80 -16 -80 -49 0 -30 -10 -40 -26 -26 -12 10 -62 12 -154 8 -14 0 -40 3
-58 8 -17 4 -59 7 -91 5 -52 -3 -58 -6 -54 -23 7 -24 -13 -24 -84 -1 -30 10
-60 28 -73 45 -12 15 -40 37 -62 48 -37 19 -42 19 -50 5 -10 -18 -38 -22 -38
-6 0 6 -8 14 -17 17 -10 4 -29 13 -42 22 -15 10 -49 15 -97 16 -68 0 -79 -4
-75 -27 1 -8 -15 -12 -32 -9 -4 1 -17 -4 -28 -9 -18 -10 -19 -21 -19 -183 1
-189 5 -204 59 -227 31 -13 39 -24 22 -34 -5 -3 -14 1 -21 10 -7 8 -19 13 -27
10 -7 -3 -13 1 -13 9 0 8 -4 15 -10 15 -5 0 -9 -22 -9 -48 1 -41 6 -51 29 -67
23 -15 29 -28 33 -74 6 -56 2 -75 -11 -54 -4 7 -18 11 -30 10 l-22 -1 2 -401
3 -400 48 -3 c33 -2 47 -7 47 -18 0 -17 -21 -19 -37 -3 -14 14 -25 -3 -17 -25
5 -13 9 -14 21 -4 9 7 41 12 81 10 47 -1 71 3 83 14 13 12 37 14 110 12 82 -3
94 -1 97 15 2 12 -3 17 -17 17 -12 0 -21 4 -21 9 0 11 25 21 56 21 13 0 24 5
24 11 0 11 27 9 80 -6 14 -4 36 -8 50 -9 30 -1 49 -16 43 -33 -3 -7 2 -13 10
-13 8 0 17 -9 20 -20 8 -30 27 -24 27 8 0 21 2 24 10 12 8 -13 10 -12 10 3 0
25 18 21 22 -5 5 -33 28 -35 28 -2 0 24 2 26 13 12 24 -30 99 -46 124 -25 9 6
19 2 32 -14 21 -26 39 -29 199 -31 45 -1 82 -5 82 -10 0 -5 5 -6 10 -3 6 4 8
10 5 15 -7 11 92 33 130 28 21 -2 31 -10 35 -26 3 -13 9 -23 14 -22 5 1 13 -4
17 -12 7 -10 9 -10 9 0 0 6 9 12 20 12 20 0 55 -52 43 -64 -4 -3 9 -6 28 -7
19 0 27 -3 19 -6 -8 -3 -41 -23 -72 -45 -31 -21 -61 -38 -65 -38 -13 0 -83
-60 -83 -71 0 -5 -16 -31 -35 -58 -40 -55 -41 -62 -18 -102 17 -28 17 -30 -4
-44 -12 -9 -28 -21 -35 -28 -7 -7 -58 -38 -113 -69 -126 -71 -187 -117 -225
-171 -16 -23 -34 -47 -38 -53 -19 -22 -30 -52 -52 -144 -14 -61 -32 -107 -49
-129 -26 -35 -58 -92 -105 -188 -14 -28 -29 -54 -35 -57 -5 -3 -21 -42 -36
-86 -15 -44 -30 -82 -34 -85 -5 -2 -14 -26 -21 -52 -7 -27 -16 -52 -20 -58 -4
-5 -13 -27 -19 -48 -7 -20 -34 -61 -61 -90 -44 -48 -81 -121 -52 -103 15 9 42
-4 42 -21 0 -11 -9 -12 -38 -8 -51 9 -102 27 -102 37 0 4 -5 8 -11 8 -11 0
-45 16 -221 101 l-58 27 0 -39 c0 -21 4 -39 9 -39 10 0 9 -26 -2 -36 -4 -4 -7
-45 -7 -91 l0 -83 138 0 c94 0 142 4 150 12 9 9 12 9 12 0 0 -9 101 -12 424
-12 l424 0 6 25 c4 14 4 36 0 50 -4 17 -1 27 9 31 9 3 20 18 25 32 6 17 22 32
42 39 l32 12 -7 -95 -7 -94 555 0 c484 0 556 2 561 15 7 19 36 19 36 0 0 -13
46 -15 350 -15 193 0 350 3 350 6 0 4 -8 13 -17 20 -12 9 -13 13 -5 14 7 0 22
-9 34 -20 25 -23 108 -29 108 -8 0 9 3 9 12 0 9 -9 88 -12 295 -12 l284 0 6
30 c3 17 10 30 15 30 6 0 8 8 6 18 -3 10 2 24 10 31 9 9 12 25 9 47 -7 42 4
49 33 22 18 -17 24 -18 31 -7 5 8 9 17 9 22 0 18 20 5 20 -14 0 -12 8 -28 18
-35 14 -10 20 -10 34 3 16 14 18 14 27 -8 16 -40 12 -13 -9 68 -21 76 -42 118
-53 107 -3 -4 -12 5 -18 20 -12 26 -29 35 -29 16 0 -5 6 -10 12 -10 7 0 2 -7
-10 -16 -24 -16 -30 -44 -10 -44 9 0 9 -3 0 -12 -7 -7 -13 -21 -13 -33 -2 -21
-16 60 -23 128 -3 33 0 40 20 47 30 12 30 31 -1 84 -41 71 -57 126 -49 179 6
44 7 47 23 33 33 -30 309 -46 319 -18 4 14 38 16 47 3 11 -18 140 -5 190 19
39 19 50 21 70 10 12 -7 33 -9 46 -5 19 5 21 4 9 -4 -12 -8 -8 -11 17 -11 l32
0 1 540 0 540 -24 0 c-14 0 -28 5 -32 12 -5 8 2 9 23 5 l30 -6 1 99 c1 94 0
99 -21 103 l-22 4 23 2 c22 1 22 2 22 176 0 100 -4 175 -9 175 -5 0 -32 -5
-60 -12 -56 -13 -51 -27 9 -29 34 -1 34 -1 -9 -10 -30 -6 -49 -5 -58 3 -10 8
-20 8 -40 -1 -28 -13 -46 -6 -23 9 10 7 -13 10 -67 10 -65 0 -83 3 -83 14 0 8
8 17 18 19 12 3 9 5 -8 6 -16 1 -21 4 -14 11 7 7 19 8 37 1 25 -10 44 -11 191
-11 71 -1 86 7 86 43 0 10 -8 17 -20 17 -28 0 -25 17 5 22 19 4 26 0 34 -21 7
-18 10 27 10 153 l1 178 -26 -5 c-19 -3 -24 -1 -20 10 3 8 6 17 6 19 0 2 7 4
16 4 14 0 14 3 4 15 -9 11 -10 18 -1 29 6 7 9 21 5 30 -4 9 -1 16 6 16 7 0 1
9 -13 20 -30 24 -50 25 -67 5 -7 -9 -15 -13 -18 -11 -3 3 -17 -2 -32 -11 -27
-16 -67 -12 -56 6 6 10 -23 25 -32 16 -3 -2 1 -11 8 -20 12 -15 10 -17 -20
-19 -8 -1 -14 -7 -13 -14 4 -15 -9 -16 -24 -1 -8 8 -13 8 -17 0 -4 -6 -16 -11
-27 -11 -28 0 -23 -15 14 -44 17 -14 27 -26 21 -26 -7 0 -15 -10 -18 -22 l-7
-23 -9 23 c-5 12 -14 22 -20 22 -5 0 -10 7 -10 15 0 22 -47 19 -60 -4 -14 -27
-13 -41 5 -41 22 0 20 -47 -2 -47 -26 0 -53 27 -53 53 0 13 -4 26 -10 29 -5 3
-10 2 -10 -4 0 -14 -29 -41 -45 -41 -8 0 -17 9 -20 20 -11 36 -22 21 -19 -27
2 -37 1 -41 -5 -18 -4 20 -12 30 -24 29 -24 -2 -22 1 19 39 l36 33 -45 -2
c-58 -2 -69 -9 -61 -41 5 -19 3 -24 -7 -21 -7 2 -17 19 -21 36 -6 22 -15 32
-27 32 -18 0 -35 33 -23 44 11 12 50 5 56 -9 7 -18 42 -20 48 -2 7 18 -2 37
-18 37 -16 0 -19 26 -4 35 6 3 22 -3 36 -14 20 -16 37 -20 70 -17 24 3 48 8
54 11 6 4 17 1 25 -5 12 -10 15 -10 15 2 0 8 -5 19 -12 26 -9 9 -9 12 1 12 9
0 12 10 9 31 -5 32 11 49 60 64 19 6 22 3 22 -23 0 -28 4 -31 50 -41 28 -6 62
-11 74 -11 13 0 26 -7 30 -15 7 -19 88 -21 85 -2 -6 49 15 62 46 27 10 -11 26
-20 35 -20 9 0 21 -5 28 -12 9 -9 12 -2 12 34 0 28 -5 48 -12 51 -10 4 -10 6
-1 6 10 1 13 142 13 660 l0 659 -98 8 c-53 4 -103 7 -110 5 -7 -1 -15 5 -18
13 -3 8 -13 17 -22 21 -30 12 -169 17 -176 7 -10 -16 -77 4 -100 30 -34 39
-49 39 -86 2z m289 -1031 c0 -16 -3 -22 -6 -13 -3 8 -10 21 -16 28 -7 8 -5 12
7 12 11 0 16 -8 15 -27z m-2659 -39 c0 -8 -7 -14 -15 -14 -15 0 -21 21 -9 33
10 9 24 -2 24 -19z m70 11 c0 -16 -46 -43 -56 -32 -3 3 -1 15 6 26 12 24 50
28 50 6z m-370 -15 c0 -5 -4 -10 -9 -10 -6 0 -13 5 -16 10 -3 6 1 10 9 10 9 0
16 -4 16 -10z m1237 -142 c-3 -8 -6 -5 -6 6 -1 11 2 17 5 13 3 -3 4 -12 1 -19z
m-52 -36 c68 -30 102 -59 204 -177 50 -58 84 -145 102 -259 l13 -87 63 7 c60
6 63 5 74 -20 7 -14 20 -28 31 -31 10 -4 18 -11 18 -16 0 -11 -23 -7 -32 6 -5
6 -11 6 -19 -2 -18 -18 9 -113 33 -113 10 0 18 5 18 11 0 8 4 8 15 -1 33 -27
56 36 29 79 -10 14 -20 41 -23 60 -5 29 -13 38 -50 58 -2 1 6 14 18 29 18 23
21 24 23 8 0 -11 1 -27 0 -36 -2 -24 19 -23 25 1 3 11 11 22 19 25 16 6 28 -9
19 -24 -7 -12 3 -13 71 -10 44 1 54 -2 68 -21 9 -13 16 -18 16 -11 0 16 15 15
33 -3 13 -12 17 -13 27 0 8 9 22 12 42 8 27 -5 29 -4 26 17 -1 13 3 25 10 27
6 3 12 0 12 -6 0 -14 37 -14 45 -1 3 6 -5 10 -19 10 -14 0 -28 5 -31 10 -3 6
-18 10 -33 10 -18 0 -23 3 -15 11 9 9 150 16 157 8 2 -2 6 -16 10 -31 5 -21 3
-28 -9 -28 -8 0 -15 5 -15 10 0 6 -4 10 -9 10 -4 0 -8 -40 -7 -90 0 -88 12
-123 18 -57 3 37 21 43 26 10 2 -13 7 -23 12 -23 14 0 21 -33 9 -41 -9 -5 -9
-14 1 -38 10 -26 18 -31 45 -31 27 0 35 5 43 28 l10 27 1 -26 c1 -31 22 -52
44 -43 10 4 15 0 14 -13 -2 -14 5 -18 36 -18 22 0 42 -6 47 -15 12 -19 -7 -31
-34 -20 -12 5 -34 11 -50 15 -21 4 -26 9 -17 14 20 13 2 17 -79 20 -41 1 -102
6 -135 11 -33 5 -84 7 -113 5 -50 -5 -57 -2 -54 27 3 15 -27 26 -85 33 -39 4
-63 3 -63 -3 0 -10 46 -22 87 -22 32 0 25 -21 -11 -33 -19 -6 -31 -6 -35 1 -3
5 -31 13 -61 16 -179 19 -169 17 -172 43 -4 29 -23 26 -23 -4 1 -12 -6 -25
-13 -28 -11 -4 -13 5 -11 39 3 35 0 47 -14 56 -22 14 -36 5 -19 -12 17 -17 15
-38 -3 -32 -9 4 -18 -1 -22 -12 -4 -10 -2 -19 4 -21 6 -2 9 -12 6 -23 -6 -23
24 -41 52 -29 11 4 47 8 80 8 87 1 48 -16 -50 -22 l-80 -5 -3 -38 c-1 -22 -9
-68 -18 -104 -15 -58 -15 -72 -2 -130 10 -42 20 -64 28 -62 17 4 62 -40 121
-119 54 -73 79 -125 79 -163 0 -14 20 -54 45 -90 25 -37 45 -70 45 -75 0 -12
77 -49 120 -57 19 -4 81 -28 136 -55 144 -69 231 -152 297 -281 l48 -95 -23
-44 c-36 -69 -43 -73 -64 -34 -13 24 -21 31 -30 24 -17 -14 -48 -19 -63 -10
-14 9 2 61 20 61 6 0 8 -7 5 -16 -3 -8 -2 -12 4 -9 6 3 10 -1 10 -9 0 -23 17
-20 25 4 4 13 -2 33 -15 54 -13 22 -17 37 -10 41 6 3 8 10 5 15 -3 5 -2 18 4
28 13 25 -25 86 -49 79 -19 -5 -53 27 -42 39 4 3 -3 2 -15 -5 -12 -6 -23 -16
-25 -22 -2 -6 -15 -1 -31 12 -21 16 -31 19 -40 10 -6 -6 -21 -11 -33 -11 -12
0 -24 -7 -28 -15 -3 -8 -14 -15 -25 -15 -23 0 -29 -13 -26 -65 1 -22 -4 -49
-12 -60 -7 -11 -13 -27 -13 -37 0 -11 -5 -15 -14 -12 -7 3 -17 -3 -20 -13 -4
-10 -2 -19 3 -21 7 -2 3 -14 -9 -29 -11 -14 -20 -34 -20 -43 0 -26 -26 -45
-34 -25 -3 8 -12 15 -20 15 -7 0 -17 7 -20 16 -8 20 10 97 33 143 10 20 29 55
41 78 12 23 27 68 33 101 9 50 15 61 40 72 16 7 48 12 72 12 38 -1 43 1 38 16
-9 24 -23 32 -60 32 -18 0 -33 5 -33 10 0 6 -5 10 -11 10 -6 0 -23 8 -37 18
-50 34 -107 47 -142 32 -38 -16 -54 -1 -40 36 9 23 -8 58 -29 60 -6 1 -18 2
-26 3 -9 0 -15 11 -15 24 1 21 1 21 15 3 8 -11 17 -17 20 -14 7 7 -11 54 -24
63 -6 3 -11 27 -11 52 0 25 -7 61 -16 80 -17 35 -77 103 -92 103 -5 0 -16 16
-26 36 -9 21 -21 33 -25 28 -10 -11 -28 -104 -37 -188 -9 -91 -22 -53 -28 85
-3 69 -10 137 -15 151 -5 14 -7 29 -4 32 4 3 5 25 4 48 -12 240 -51 452 -100
548 -10 19 -21 47 -25 63 -8 33 -26 36 -26 5 0 -40 -11 -67 -25 -61 -8 2 -11
11 -8 19 3 8 -1 14 -11 14 -8 0 -31 16 -50 35 -20 19 -39 35 -44 35 -5 0 -17
9 -27 20 -10 11 -27 22 -39 26 -11 3 -46 16 -76 29 -30 13 -64 26 -75 30 -34
11 -157 13 -190 3 -16 -5 -43 -12 -60 -15 -28 -5 -51 -15 -131 -57 -35 -18
-124 -103 -124 -118 0 -5 -9 -21 -20 -35 -11 -14 -20 -35 -20 -46 0 -45 -20 0
-25 57 -3 33 -8 63 -10 66 -3 4 4 10 15 13 11 3 20 14 20 25 0 11 7 26 17 33
15 13 15 12 5 -8 -14 -26 -15 -33 -3 -33 5 0 13 10 17 23 3 12 29 53 56 90 51
71 65 97 53 97 -4 0 -14 -8 -22 -17 -13 -16 -13 -16 -4 4 13 25 72 73 121 98
19 10 42 23 50 30 23 18 140 64 190 75 25 5 88 7 140 5 79 -3 107 -8 165 -33z
m-1965 -68 c0 -13 -4 -24 -10 -24 -5 0 -10 14 -10 31 0 17 4 28 10 24 6 -3 10
-17 10 -31z m254 -4 c9 -7 16 -17 16 -22 0 -6 -7 -4 -16 3 -9 7 -28 13 -42 14
-14 0 -27 6 -30 13 -5 16 51 10 72 -8z m-257 -62 c-3 -7 -5 -2 -5 12 0 14 2
19 5 13 2 -7 2 -19 0 -25z m272 -5 c2 -2 -5 -3 -17 -3 -14 0 -22 6 -22 16 0
14 3 15 18 3 9 -7 19 -15 21 -16z m3746 1 c-21 -15 -37 -14 -42 3 -3 7 8 13
24 15 37 5 42 -1 18 -18z m-4511 -19 c14 -10 24 -11 38 -4 28 15 65 3 133 -41
33 -22 68 -40 77 -40 10 0 18 -4 18 -10 0 -5 9 -10 19 -10 11 0 22 -4 25 -9 3
-5 18 -12 33 -16 16 -3 36 -13 45 -22 9 -8 22 -12 27 -8 6 3 11 2 11 -3 0 -6
11 -13 25 -16 55 -14 19 -24 -80 -23 -58 0 -105 5 -105 10 0 4 9 5 20 2 16 -5
20 -2 20 15 0 18 -4 21 -24 16 -22 -5 -25 -3 -28 26 -3 31 -5 33 -42 32 -32
-1 -44 4 -63 27 -24 28 -24 28 -44 8 -19 -19 -20 -19 -44 -2 -13 10 -25 21
-25 26 0 4 -8 7 -18 7 -15 0 -52 32 -52 45 0 9 15 5 34 -10z m4285 -27 c-8
-14 -14 -16 -29 -8 -37 20 -22 55 16 38 19 -9 21 -14 13 -30z m-3799 28 c0 -3
-4 -8 -10 -11 -5 -3 -10 -1 -10 4 0 6 5 11 10 11 6 0 10 -2 10 -4z m160 -36
c-6 -11 -15 -20 -20 -20 -16 0 -11 18 8 29 24 14 24 14 12 -9z m-123 -12 c-3
-8 -6 -5 -6 6 -1 11 2 17 5 13 3 -3 4 -12 1 -19z m1238 -18 c-10 -11 -20 -18
-23 -15 -3 3 3 14 13 25 10 11 20 18 23 15 3 -3 -3 -14 -13 -25z m2779 15 c-4
-8 -8 -15 -10 -15 -2 0 -4 7 -4 15 0 8 4 15 10 15 5 0 7 -7 4 -15z m-4079 -5
c4 -6 15 -8 26 -5 21 7 26 -14 8 -32 -16 -16 -59 5 -59 29 0 20 15 24 25 8z
m121 -15 c4 -8 14 -15 23 -15 9 0 27 -7 39 -16 30 -21 14 -54 -28 -54 -35 0
-48 16 -18 23 18 5 19 8 8 22 -9 11 -16 13 -24 5 -17 -17 -23 -12 -24 20 -1
31 14 41 24 15z m174 -1 c0 -8 -4 -12 -10 -9 -5 3 -10 10 -10 16 0 5 5 9 10 9
6 0 10 -7 10 -16z m-420 -4 c0 -5 -5 -10 -11 -10 -5 0 -7 5 -4 10 3 6 8 10 11
10 2 0 4 -4 4 -10z m3156 -16 c-2 -6 2 -21 10 -32 12 -17 12 -21 -1 -26 -12
-4 -13 -11 -5 -32 12 -32 5 -44 -13 -21 -11 14 -14 14 -32 1 -17 -12 -18 -16
-5 -24 8 -5 11 -12 7 -16 -12 -13 -29 13 -23 34 4 11 15 22 25 25 19 5 34 54
20 63 -5 3 -9 -2 -9 -10 0 -14 -3 -14 -20 -4 -19 12 -19 13 1 34 21 22 53 29
45 8z m-3423 -20 c-4 -10 -9 -12 -15 -6 -12 12 -1 35 12 27 5 -3 6 -13 3 -21z
m654 14 c15 -7 35 -21 44 -30 9 -10 21 -18 28 -18 6 0 11 -4 11 -10 0 -5 7
-10 15 -10 26 0 16 -16 -10 -18 -15 -1 -28 4 -31 13 -7 16 -59 21 -69 6 -3 -6
-15 -9 -26 -8 -18 1 -19 3 -4 13 9 7 12 14 6 15 -8 4 -4 59 5 59 2 0 16 -6 31
-12z m2973 -65 c30 -4 40 -10 40 -24 0 -21 -16 -34 -23 -19 -4 7 -5 6 -3 0 1
-7 6 -12 11 -12 21 0 45 -19 45 -36 1 -15 2 -15 15 2 13 18 16 18 40 2 20 -13
25 -24 23 -51 -3 -43 -18 -47 -18 -5 0 20 -5 30 -15 30 -8 0 -12 -6 -10 -13 3
-7 -3 -19 -14 -26 -15 -11 -17 -19 -11 -37 5 -13 5 -26 1 -29 -16 -9 -40 6
-43 28 -2 12 -9 21 -16 20 -6 -2 -12 4 -12 13 0 10 -5 14 -15 10 -10 -4 -19 2
-23 15 -7 19 -9 19 -21 5 -11 -13 -11 -19 0 -32 11 -13 9 -14 -14 -9 -17 5
-33 2 -42 -5 -16 -14 -20 -8 -28 43 -4 24 -2 26 12 15 9 -7 22 -20 29 -28 12
-13 13 -13 9 2 -3 9 1 24 8 35 19 24 18 33 0 33 -8 0 -15 -5 -15 -11 0 -7 -9
0 -20 14 -19 24 -26 47 -14 47 3 0 17 -9 31 -20 30 -23 53 -26 53 -6 0 45 -69
55 -99 15 -19 -26 -31 -24 -31 7 0 38 17 63 39 57 10 -2 25 2 32 11 13 14 16
13 37 -10 14 -17 37 -28 62 -31z m-3270 43 c0 -11 -19 -15 -25 -6 -3 5 1 10 9
10 9 0 16 -2 16 -4z m3356 -31 c14 -13 14 -15 0 -15 -9 0 -16 -5 -16 -11 0 -6
-7 -3 -16 5 -8 9 -23 16 -32 17 -14 0 -13 2 3 9 30 13 45 12 61 -5z m-2766 -5
c0 -5 -10 -10 -22 -10 -19 0 -20 2 -8 10 19 13 30 13 30 0z m-59 -19 c21 -17
22 -20 7 -26 -23 -9 -64 -2 -58 10 3 6 8 9 12 8 4 -2 5 4 2 12 -8 21 9 19 37
-4z m-291 -21 c0 -5 -9 -10 -20 -10 -11 0 -20 5 -20 10 0 6 9 10 20 10 11 0
20 -4 20 -10z m3738 -28 c2 -18 -1 -32 -8 -32 -6 0 -8 10 -4 24 4 17 0 27 -13
35 -17 11 -17 12 2 9 14 -2 21 -12 23 -36z m73 1 c-8 -15 -10 -15 -11 -2 0 17
10 32 18 25 2 -3 -1 -13 -7 -23z m-1510 -5 c11 -21 11 -22 -4 -9 -10 7 -17 17
-17 22 0 15 9 10 21 -13z m-696 -36 c79 -10 99 -19 170 -74 61 -48 74 -68 46
-68 -11 0 -23 5 -26 10 -3 6 -17 10 -31 10 -34 0 -84 27 -84 45 0 20 -24 19
-41 -1 -11 -13 -30 -15 -119 -10 -63 3 -122 12 -145 22 -21 8 -51 14 -67 12
-21 -3 -28 0 -28 11 1 58 98 70 325 43z m1253 6 c14 -14 16 -28 2 -28 -5 0
-14 9 -20 20 -12 22 -1 27 18 8z m-1908 -12 c0 -11 -19 -15 -25 -6 -3 5 1 10
9 10 9 0 16 -2 16 -4z m2820 -37 c0 -5 -7 -6 -15 -3 -8 4 -15 13 -15 21 0 13
3 13 15 3 8 -7 15 -16 15 -21z m-883 -1 c-3 -8 -6 -5 -6 6 -1 11 2 17 5 13 3
-3 4 -12 1 -19z m800 -10 c-3 -8 -6 -5 -6 6 -1 11 2 17 5 13 3 -3 4 -12 1 -19z
m-2432 -8 c-3 -5 -10 -10 -16 -10 -5 0 -9 5 -9 10 0 6 7 10 16 10 8 0 12 -4 9
-10z m-1902 -46 c-8 -21 -23 -17 -23 6 0 13 5 18 14 14 8 -3 12 -12 9 -20z
m67 -10 c0 -18 -24 -18 -39 -1 -8 10 -7 17 1 25 14 14 38 -2 38 -24z m460 6
c74 -6 227 -14 340 -20 250 -13 312 -19 305 -31 -4 -5 10 -9 29 -9 20 0 36 5
36 10 0 8 46 9 143 4 217 -11 214 -12 224 26 5 18 8 -30 9 -123 0 -83 -1 -122
-3 -85 -5 85 -11 89 -143 87 -100 -1 -130 7 -130 36 0 8 8 16 18 18 9 3 2 5
-15 6 -28 1 -33 -2 -33 -23 0 -23 -2 -24 -57 -20 -136 10 -402 21 -448 19 -27
-1 -63 2 -80 6 -37 10 -214 18 -220 9 -6 -9 -85 1 -85 11 0 14 -48 11 -53 -3
-4 -9 -8 -10 -14 -3 -4 6 -29 11 -54 12 -26 0 -50 3 -55 5 -5 3 -24 6 -43 6
-19 0 -38 7 -42 14 -6 9 -9 5 -10 -12 -1 -15 -5 -8 -10 20 -6 32 -5 46 4 52
12 9 155 4 387 -12z m3610 -1 c0 -6 -4 -7 -10 -4 -5 3 -10 11 -10 16 0 6 5 7
10 4 6 -3 10 -11 10 -16z m250 -45 c0 -8 -4 -12 -10 -9 -5 3 -10 10 -10 16 0
5 5 9 10 9 6 0 10 -7 10 -16z m-586 -10 c4 -10 1 -14 -6 -12 -15 5 -23 28 -10
28 5 0 13 -7 16 -16z m376 -4 c0 -5 -4 -10 -10 -10 -5 0 -10 5 -10 10 0 6 5
10 10 10 6 0 10 -4 10 -10z m-573 -42 c-3 -8 -6 -5 -6 6 -1 11 2 17 5 13 3 -3
4 -12 1 -19z m683 -49 c0 -12 -7 -19 -20 -19 -14 0 -20 7 -20 23 0 13 3 27 7
30 10 11 33 -13 33 -34z m77 9 c-3 -7 -5 -2 -5 12 0 14 2 19 5 13 2 -7 2 -19
0 -25z m-3436 3 c-8 -5 -20 -7 -28 -4 -21 8 -15 13 15 13 20 0 23 -3 13 -9z
m-534 -15 c6 -5 -21 -13 -72 -20 -16 -2 -1 -4 35 -3 67 0 110 -8 110 -22 0 -5
3 -23 6 -40 5 -24 3 -31 -10 -31 -9 0 -16 -8 -17 -17 0 -14 -2 -15 -6 -3 -3 8
-9 17 -12 20 -16 13 -30 51 -25 65 9 23 -93 21 -118 -2 -15 -13 -21 -14 -27
-5 -4 7 -15 10 -24 7 -8 -4 -25 -2 -36 4 -18 10 -21 8 -27 -16 -9 -44 -12 -50
-13 -25 -1 13 -5 21 -10 18 -10 -7 -24 22 -16 34 3 5 1 11 -5 15 -6 4 -7 11
-4 17 4 6 10 5 15 -3 6 -10 9 -11 9 -1 0 19 27 14 44 -9 18 -27 50 -21 54 10
4 23 6 23 74 18 38 -3 72 -8 75 -11z m759 2 c3 -5 -36 -8 -89 -6 -52 2 -93 6
-90 11 6 10 173 6 179 -5z m1049 -90 c10 -32 26 -65 37 -74 21 -20 23 -34 6
-34 -7 0 -41 12 -75 27 -57 26 -84 55 -62 69 5 3 9 23 7 44 -1 21 4 46 12 55
12 15 15 14 35 -7 11 -13 29 -49 40 -80z m-1450 82 c-3 -5 -14 -10 -23 -10
-15 0 -15 2 -2 10 20 13 33 13 25 0z m458 3 c-7 -2 -19 -2 -25 0 -7 3 -2 5 12
5 14 0 19 -2 13 -5z m2436 -17 c10 -8 7 -12 -15 -18 -32 -8 -50 3 -41 26 6 16
29 13 56 -8z m-3579 -11 c0 -21 -17 -27 -24 -9 -10 25 -7 34 9 28 8 -4 15 -12
15 -19z m720 15 c0 -5 -4 -10 -10 -10 -5 0 -10 5 -10 10 0 6 5 10 10 10 6 0
10 -4 10 -10z m685 1 c11 -5 -10 -6 -50 -3 -38 2 -72 6 -74 8 -8 8 105 2 124
-5z m2070 -1 c3 -5 -1 -10 -9 -10 -8 0 -18 5 -21 10 -3 6 1 10 9 10 8 0 18 -4
21 -10z m185 -10 c0 -5 -5 -10 -11 -10 -5 0 -7 5 -4 10 3 6 8 10 11 10 2 0 4
-4 4 -10z m230 -20 c3 -13 12 -26 19 -28 11 -4 13 3 8 27 -6 29 -5 30 13 19
11 -7 20 -16 20 -20 0 -12 87 -48 118 -48 40 0 42 -16 2 -25 -19 -4 -41 -1
-61 9 -17 9 -35 13 -39 11 -5 -3 -21 0 -36 5 -19 8 -30 8 -38 0 -15 -15 -26
-12 -26 6 0 9 -6 14 -12 11 -7 -2 -12 -11 -10 -19 2 -13 -8 -15 -60 -12 -35 2
-65 9 -70 16 -6 10 -8 10 -8 0 0 -9 -10 -11 -37 -6 -21 4 -42 10 -48 14 -5 4
-19 10 -30 13 -11 3 3 4 30 2 28 -1 58 -6 68 -10 11 -5 17 -3 17 6 0 9 3 10 8
3 19 -28 72 -25 72 5 0 14 -2 14 -11 1 -9 -12 -10 -12 -5 3 3 10 6 23 6 28 0
19 21 8 30 -16 9 -24 39 -35 41 -15 1 6 3 15 4 20 1 6 3 15 4 21 2 19 25 3 31
-21z m-3399 -10 c5 0 9 5 9 10 0 15 47 12 53 -3 3 -7 3 -25 0 -40 -4 -21 -1
-27 12 -27 13 0 16 6 12 27 -8 41 0 49 38 45 45 -5 50 -14 31 -54 -8 -18 -16
-42 -18 -53 -3 -17 -5 -17 -17 -5 -9 10 -29 14 -62 12 -28 -2 -49 0 -49 6 0 5
-11 13 -24 16 -30 7 -37 42 -16 75 12 21 16 22 18 8 2 -9 8 -17 13 -17z m3716
-7 c-3 -10 -5 -4 -5 12 0 17 2 24 5 18 2 -7 2 -21 0 -30z m-1767 6 c0 -11 -13
-34 -29 -50 -25 -24 -38 -29 -80 -29 -27 0 -52 4 -55 9 -3 4 -26 14 -50 21
-25 7 -47 18 -50 26 -4 10 0 11 19 2 18 -8 41 -6 97 7 40 10 80 21 88 26 29
16 60 10 60 -12z m-750 -42 c0 -10 4 -16 9 -12 5 3 13 0 17 -6 4 -8 3 -9 -4
-5 -7 4 -12 1 -12 -6 -1 -21 -29 35 -29 57 -1 17 1 17 9 5 5 -8 10 -23 10 -33z
m807 -19 c2 -24 -2 -60 -10 -83 -12 -34 -19 -40 -41 -38 -26 2 -76 46 -76 68
0 7 13 18 28 24 16 7 40 29 53 51 28 45 39 39 46 -22z m456 35 c-7 -2 -19 -2
-25 0 -7 3 -2 5 12 5 14 0 19 -2 13 -5z m454 -23 c37 0 63 -3 59 -7 -10 -10
-108 -13 -176 -5 l-55 6 40 7 c22 3 46 4 53 3 8 -2 43 -4 79 -4z m-184 -7 c-7
-2 -19 -2 -25 0 -7 3 -2 5 12 5 14 0 19 -2 13 -5z m278 -6 c-1 -12 -15 -9 -19
4 -3 6 1 10 8 8 6 -3 11 -8 11 -12z m259 -37 c0 -5 -4 -10 -10 -10 -5 0 -10 5
-10 10 0 6 5 10 10 10 6 0 10 -4 10 -10z m-3863 -102 c-2 -13 -4 -3 -4 22 0
25 2 35 4 23 2 -13 2 -33 0 -45z m1640 15 c-3 -10 -5 -2 -5 17 0 19 2 27 5 18
2 -10 2 -26 0 -35z m1797 31 c15 4 26 2 26 -4 0 -5 -23 -10 -52 -10 -47 0 -50
1 -32 14 12 10 21 11 25 4 4 -6 18 -8 33 -4z m-1106 -53 c3 -8 -1 -12 -9 -9
-7 2 -15 10 -17 17 -3 8 1 12 9 9 7 -2 15 -10 17 -17z m1012 -1 c0 -5 -4 -10
-10 -10 -5 0 -10 5 -10 10 0 6 5 10 10 10 6 0 10 -4 10 -10z m-1724 -112 c-8
-51 -17 -123 -18 -160 -2 -51 -6 -68 -17 -68 -19 0 -9 150 14 204 9 21 17 60
17 87 1 32 5 46 11 40 6 -6 4 -43 -7 -103z m1349 72 c18 -8 18 -9 -5 -9 -14 0
-34 4 -45 9 -18 8 -18 9 5 9 14 0 34 -4 45 -9z m68 -7 c-7 -2 -21 -2 -30 0
-10 3 -4 5 12 5 17 0 24 -2 18 -5z m-662 -86 c38 -25 49 -66 25 -87 -9 -7 -16
-23 -16 -35 0 -49 -57 -57 -103 -15 -11 11 -27 20 -34 20 -25 0 -13 31 15 36
17 3 28 12 28 22 1 9 4 25 9 35 5 11 3 17 -6 17 -8 0 -23 7 -33 15 -18 14 -16
15 31 15 36 0 60 -7 84 -23z m-1531 -57 c0 -5 -4 -10 -10 -10 -5 0 -10 5 -10
10 0 6 5 10 10 10 6 0 10 -4 10 -10z m3607 -26 c-3 -3 -12 -4 -19 -1 -8 3 -5
6 6 6 11 1 17 -2 13 -5z m-992 -14 c-3 -5 -11 -10 -16 -10 -6 0 -7 5 -4 10 3
6 11 10 16 10 6 0 7 -4 4 -10z m380 -9 c3 -5 1 -12 -5 -16 -5 -3 -10 1 -10 9
0 18 6 21 15 7z m274 0 c9 -6 10 -11 2 -15 -6 -4 -11 -16 -11 -27 0 -14 -7
-19 -24 -19 -14 0 -27 4 -30 9 -3 5 2 8 12 7 12 -1 18 8 20 27 4 29 9 32 31
18z m-334 -21 c-3 -5 -12 -10 -18 -10 -7 0 -6 4 3 10 19 12 23 12 15 0z m151
-12 c-20 -11 -44 1 -25 12 6 5 19 6 27 3 12 -5 12 -7 -2 -15z m471 7 c3 -9 3
-19 -1 -22 -7 -7 -36 16 -36 28 0 15 30 10 37 -6z m-517 1 c0 -3 -4 -8 -10
-11 -5 -3 -10 -1 -10 4 0 6 5 11 10 11 6 0 10 -2 10 -4z m111 -9 c-1 -12 -15
-9 -19 4 -3 6 1 10 8 8 6 -3 11 -8 11 -12z m477 -6 c3 -8 -3 -12 -14 -9 -23 4
-31 27 -8 24 10 -2 20 -8 22 -15z m-854 -6 c-4 -8 -11 -15 -16 -15 -6 0 -5 6
2 15 7 8 14 15 16 15 2 0 1 -7 -2 -15z m626 -12 c0 -9 -6 -13 -15 -9 -22 8
-18 -11 6 -27 24 -17 10 -32 -22 -22 -15 5 -19 12 -15 28 3 12 6 29 6 39 0 11
6 15 20 11 11 -3 20 -12 20 -20z m301 -31 c-5 -2 -7 -10 -4 -18 4 -10 0 -12
-11 -8 -12 5 -14 10 -6 19 6 7 8 26 5 42 l-7 28 17 -30 c9 -17 12 -31 6 -33z
m-361 38 c0 -5 -11 -10 -25 -10 -14 0 -25 5 -25 10 0 6 11 10 25 10 14 0 25
-4 25 -10z m-2646 -16 c9 -22 -3 -32 -14 -14 -12 19 -12 30 -1 30 5 0 12 -7
15 -16z m2026 6 c0 -5 -5 -10 -11 -10 -5 0 -7 5 -4 10 3 6 8 10 11 10 2 0 4
-4 4 -10z m230 0 c0 -9 -40 -30 -55 -30 -12 0 9 30 23 33 29 8 32 7 32 -3z
m130 -2 c0 -11 -31 -10 -50 2 -10 6 -5 9 18 8 18 -1 32 -5 32 -10z m26 -35
c-2 -3 -9 -2 -15 2 -8 4 -7 13 1 28 l13 22 3 -23 c2 -13 1 -26 -2 -29z m334
37 c0 -5 -2 -10 -4 -10 -3 0 -8 5 -11 10 -3 6 -1 10 4 10 6 0 11 -4 11 -10z
m-760 -10 c0 -5 -4 -10 -10 -10 -5 0 -10 5 -10 10 0 6 5 10 10 10 6 0 10 -4
10 -10z m188 -7 c-10 -2 -28 -2 -40 0 -13 2 -5 4 17 4 22 1 32 -1 23 -4z m785
-8 c9 -21 -9 -28 -34 -13 -17 10 -23 10 -26 1 -3 -7 -14 -13 -25 -13 -35 0
-13 25 28 31 21 3 42 7 45 8 4 0 9 -6 12 -14z m-317 -4 c-7 -11 -56 -21 -56
-11 0 13 13 20 37 20 13 0 22 -4 19 -9z m119 -1 c3 -5 -1 -10 -10 -10 -9 0
-13 5 -10 10 3 6 8 10 10 10 2 0 7 -4 10 -10z m55 6 c0 -11 -19 -15 -25 -6 -3
5 1 10 9 10 9 0 16 -2 16 -4z m-250 -26 c0 -5 -5 -10 -11 -10 -5 0 -7 5 -4 10
3 6 8 10 11 10 2 0 4 -4 4 -10z m-1494 -102 c-7 -43 -33 -94 -43 -85 -5 6 37
127 45 127 2 0 2 -19 -2 -42z m140 -100 c-4 -40 -7 -112 -7 -161 0 -54 -4 -85
-10 -81 -6 3 -9 69 -8 160 1 132 3 154 16 154 14 0 15 -11 9 -72z m-89 -10
c-3 -7 -5 -2 -5 12 0 14 2 19 5 13 2 -7 2 -19 0 -25z m14 -51 c-1 -12 -15 -9
-19 4 -3 6 1 10 8 8 6 -3 11 -8 11 -12z m66 -219 c-3 -8 -6 -5 -6 6 -1 11 2
17 5 13 3 -3 4 -12 1 -19z m463 -11 c0 -12 -38 -106 -41 -102 -10 9 -59 -80
-59 -107 0 -17 -7 -31 -16 -35 -9 -3 -28 -17 -42 -29 -29 -28 -52 -18 -52 23
0 28 63 93 90 93 9 0 25 8 34 19 15 16 15 19 1 24 -27 11 -17 53 20 86 29 25
65 41 65 28z m154 -343 c-2 -97 1 -134 12 -156 9 -17 11 -28 4 -28 -6 0 -16
14 -21 30 -6 17 -14 30 -18 30 -9 0 -8 83 2 98 5 7 8 40 7 75 -2 83 -1 89 9
83 4 -3 7 -63 5 -132z m385 24 c10 -30 9 -31 -4 -14 -8 11 -15 26 -15 33 0 22
8 14 19 -19z m-1029 -196 c-7 -62 -17 -115 -23 -119 -10 -6 -7 33 16 202 17
125 22 59 7 -83z m539 112 c6 4 11 3 11 -3 0 -17 -18 -22 -43 -10 -18 8 -23
17 -19 31 5 20 5 20 22 -2 10 -13 22 -20 29 -16z m46 -34 c3 -5 1 -10 -4 -10
-6 0 -11 5 -11 10 0 6 2 10 4 10 3 0 8 -4 11 -10z m-470 -80 c3 -5 -3 -10 -15
-10 -12 0 -18 5 -15 10 3 6 10 10 15 10 5 0 12 -4 15 -10z m78 -8 c5 -1 6 -10
3 -19 -3 -10 -10 -38 -16 -63 -11 -39 -13 -42 -23 -25 -5 11 -14 23 -19 26 -5
3 -4 17 3 32 9 20 9 30 0 40 -9 11 -6 14 17 12 15 -1 31 -3 35 -3z m674 -104
c-3 -8 -6 -5 -6 6 -1 11 2 17 5 13 3 -3 4 -12 1 -19z m910 6 c-3 -3 -12 -4
-19 -1 -8 3 -5 6 6 6 11 1 17 -2 13 -5z m-923 -33 c3 -5 -1 -14 -9 -21 -8 -7
-15 -10 -15 -7 0 3 -3 12 -6 21 -7 17 20 23 30 7z m82 -13 c-4 -13 -9 -39 -12
-58 -7 -42 -26 -90 -36 -90 -11 0 -36 41 -43 72 -5 20 -3 27 12 32 10 3 27 19
38 36 24 36 51 41 41 8z m-699 -14 c-3 -3 -12 -4 -19 -1 -8 3 -5 6 6 6 11 1
17 -2 13 -5z m166 -9 c-6 -17 -25 -15 -31 3 -2 7 5 12 17 12 14 0 19 -5 14
-15z m-128 -42 c34 3 55 -13 79 -60 9 -18 21 -33 27 -33 5 0 14 -11 19 -25 5
-14 17 -25 25 -25 24 0 15 -128 -10 -146 -20 -15 -13 -46 8 -38 10 3 17 -4 22
-23 4 -17 2 -29 -4 -31 -14 -5 -14 -39 0 -47 16 -11 23 3 21 40 -3 37 2 42 22
23 27 -28 42 -88 23 -88 -8 0 -25 -12 -39 -27 -47 -50 -79 -76 -85 -69 -4 4
-7 23 -8 44 -1 21 -4 43 -8 49 -4 7 -7 36 -6 65 2 69 -6 92 -37 107 -30 13
-44 7 -44 -19 0 -10 -6 -23 -13 -27 -30 -18 -48 -61 -43 -100 3 -21 1 -45 -5
-53 -8 -12 -9 -11 -4 6 3 13 -4 38 -20 65 -13 24 -25 52 -25 62 0 9 -6 17 -14
17 -24 0 -30 22 -10 37 13 10 17 24 15 53 -2 37 -1 40 23 40 16 0 26 -6 26
-14 0 -12 5 -12 30 -3 25 9 28 15 23 37 -3 14 -14 34 -25 46 -12 13 -16 27
-12 39 5 12 1 22 -10 31 -10 7 -15 17 -11 23 3 6 1 11 -4 11 -18 0 -12 38 6
49 12 6 20 5 28 -5 5 -7 23 -12 40 -11z m268 -17 c4 -10 1 -13 -8 -9 -8 3 -12
9 -9 14 7 12 11 11 17 -5z m-566 -108 c-3 -8 -6 -5 -6 6 -1 11 2 17 5 13 3 -3
4 -12 1 -19z m947 -4 c3 -9 6 -39 6 -68 0 -42 -3 -52 -18 -53 -9 -1 -24 -3
-31 -5 -21 -4 -14 88 7 118 20 28 28 29 36 8z m-851 -115 c8 -28 -8 -23 -24 9
-23 45 -23 48 -1 29 11 -10 22 -27 25 -38z m-673 -129 c0 -5 -7 -7 -15 -4 -8
4 -15 8 -15 10 0 2 7 4 15 4 8 0 15 -4 15 -10z m14 -69 c-8 -9 -22 12 -17 26
6 15 7 14 13 -3 4 -10 6 -21 4 -23z m636 35 c0 -3 -4 -8 -10 -11 -5 -3 -10 -1
-10 4 0 6 5 11 10 11 6 0 10 -2 10 -4z m-2740 -46 c0 -5 -5 -10 -11 -10 -5 0
-7 5 -4 10 3 6 8 10 11 10 2 0 4 -4 4 -10z m2838 -8 c2 -7 -5 -12 -15 -12 -11
0 -24 -5 -29 -10 -8 -8 -18 -4 -35 10 l-24 21 32 -6 c18 -4 34 -2 38 5 8 13
27 9 33 -8z m-2848 -22 c0 -5 -7 -10 -16 -10 -8 0 -12 5 -9 10 3 6 10 10 16
10 5 0 9 -4 9 -10z m70 -5 c7 -8 18 -15 25 -15 7 0 18 -7 25 -15 7 -8 21 -15
31 -15 21 0 38 -22 21 -28 -7 -2 -12 -12 -12 -23 0 -15 -7 -19 -31 -19 -31 0
-38 24 -8 26 32 2 33 5 5 29 -16 14 -39 25 -52 25 -58 0 -77 42 -23 49 4 1 12
-6 19 -14z m2805 5 c3 -5 1 -10 -4 -10 -6 0 -11 5 -11 10 0 6 2 10 4 10 3 0 8
-4 11 -10z m140 -28 c3 -8 3 -17 0 -20 -6 -6 -55 38 -55 50 0 13 48 -13 55
-30z m605 -2 c0 -5 7 -10 15 -10 8 0 29 -9 47 -21 l33 -21 -37 7 c-27 4 -38 2
-38 -7 0 -15 -34 31 -36 49 -1 7 2 13 7 13 5 0 9 -4 9 -10z m128 -19 c3 -8 -1
-12 -9 -9 -7 2 -15 10 -17 17 -3 8 1 12 9 9 7 -2 15 -10 17 -17z m-3541 -63
c1 -18 -2 -26 -5 -18 -3 8 -10 18 -16 23 -8 5 -6 10 4 17 8 5 15 10 16 10 1 0
1 -15 1 -32z m-122 12 c3 -5 -1 -10 -9 -10 -9 0 -16 5 -16 10 0 6 4 10 9 10 6
0 13 -4 16 -10z m2195 -30 c0 -5 -4 -10 -10 -10 -5 0 -10 5 -10 10 0 6 5 10
10 10 6 0 10 -4 10 -10z"/>
<path d="M2192 3140 c-155 -22 -162 -34 -11 -20 121 12 186 3 272 -38 4 -2 7
1 7 5 0 12 -88 43 -136 49 -22 2 -48 6 -59 7 -11 2 -44 1 -73 -3z"/>
<path d="M2510 3061 c14 -12 46 -42 71 -67 34 -33 48 -41 52 -30 8 19 -22 44
-120 102 l-28 16 25 -21z"/>
<path d="M1710 2734 c0 -8 5 -12 10 -9 6 4 8 11 5 16 -9 14 -15 11 -15 -7z"/>
<path d="M2850 2601 c0 -6 9 -9 19 -8 11 0 17 5 15 9 -7 11 -34 10 -34 -1z"/>
<path d="M3345 2570 c3 -5 -9 -13 -26 -18 -34 -8 -52 -32 -25 -32 9 0 16 5 16
11 0 6 8 8 19 4 11 -3 22 -1 26 5 4 6 19 0 41 -16 43 -33 45 -17 2 25 -29 28
-67 44 -53 21z"/>
<path d="M3100 2540 c0 -5 7 -10 15 -10 8 0 15 5 15 10 0 6 -7 10 -15 10 -8 0
-15 -4 -15 -10z"/>
<path d="M3068 2453 c12 -2 30 -2 40 0 9 3 -1 5 -23 4 -22 0 -30 -2 -17 -4z"/>
<path d="M3432 2444 c4 -22 26 -28 48 -15 18 12 13 17 -24 27 -24 6 -27 4 -24
-12z"/>
<path d="M3730 2725 c0 -9 5 -15 11 -13 6 2 11 8 11 13 0 5 -5 11 -11 13 -6 2
-11 -4 -11 -13z"/>
<path d="M3792 2700 c-7 -11 -9 -20 -4 -20 10 0 32 22 32 32 0 15 -15 8 -28
-12z"/>
<path d="M538 2593 c6 -2 18 -2 25 0 6 3 1 5 -13 5 -14 0 -19 -2 -12 -5z"/>
<path d="M733 2573 c9 -2 23 -2 30 0 6 3 -1 5 -18 5 -16 0 -22 -2 -12 -5z"/>
<path d="M1298 2543 c12 -2 32 -2 45 0 12 2 2 4 -23 4 -25 0 -35 -2 -22 -4z"/>
<path d="M1518 2533 c23 -2 61 -2 85 0 23 2 4 4 -43 4 -47 0 -66 -2 -42 -4z"/>
<path d="M615 2380 c-8 -13 -1 -24 14 -19 6 3 7 10 2 18 -6 10 -10 10 -16 1z"/>
<path d="M2996 374 c-3 -9 -6 -23 -6 -32 1 -15 3 -14 15 2 17 22 20 46 6 46
-5 0 -12 -7 -15 -16z"/>
<path d="M1233 4377 c-28 -20 -30 -24 -15 -34 27 -17 5 -28 -31 -15 -56 20
-75 16 -82 -20 -7 -31 -7 -31 -24 -10 -9 11 -35 25 -58 31 -23 7 -45 16 -49
22 -4 8 -9 7 -15 -2 -7 -11 -9 -10 -9 4 0 13 -8 17 -37 17 -57 0 -83 -10 -83
-31 0 -11 -4 -19 -10 -19 -5 0 -10 9 -10 20 0 17 -3 18 -25 8 -14 -6 -25 -15
-25 -19 0 -13 -68 -39 -101 -39 -18 0 -30 -6 -34 -19 -3 -11 -12 -22 -20 -25
-16 -6 -75 42 -75 60 0 7 -7 15 -16 18 -21 8 -34 8 -33 -1 4 -27 -3 -43 -20
-43 -11 0 -23 -4 -26 -10 -3 -5 -17 -10 -31 -10 -15 0 -24 -6 -24 -16 0 -11
-5 -14 -16 -10 -29 11 -84 -15 -84 -40 0 -27 36 -43 113 -48 53 -4 57 -2 52
15 -4 13 -2 19 9 19 9 0 16 9 16 20 0 11 5 20 11 20 7 0 9 -11 6 -27 -7 -36
34 -78 66 -67 23 8 28 8 112 1 97 -8 160 -20 180 -32 34 -22 158 -29 193 -11
16 8 31 14 33 12 2 -2 16 -6 31 -10 23 -5 26 -3 21 10 -5 14 -1 16 33 10 21
-3 47 -6 57 -7 9 0 17 -4 17 -8 0 -5 16 -11 34 -14 19 -3 51 -13 71 -23 28
-13 41 -14 58 -6 41 19 55 21 61 6 3 -8 3 -21 0 -29 -4 -8 -1 -15 5 -15 6 0
11 7 11 15 0 8 7 15 15 15 9 0 15 -7 13 -17 -2 -10 4 -19 14 -21 13 -2 16 1
12 12 -11 29 13 45 46 33 17 -6 30 -17 30 -24 0 -23 33 -10 42 17 3 10 16 14
44 12 46 -3 56 3 75 42 8 16 21 32 29 34 12 4 12 1 -2 -14 -23 -27 -34 -74
-17 -74 34 0 90 23 99 40 5 10 19 22 30 25 11 3 20 11 20 17 0 6 6 19 14 27 8
9 18 29 22 45 6 26 5 28 -12 22 -10 -4 -32 -10 -49 -13 -16 -3 -37 -11 -45
-18 -33 -27 -42 -29 -28 -6 7 12 16 21 20 21 5 0 8 4 8 8 0 11 -96 10 -106 -1
-13 -12 -24 -8 -18 8 9 23 -12 18 -33 -8 -10 -14 -35 -27 -56 -31 -34 -6 -38
-5 -47 19 -8 22 -17 27 -40 27 -3 0 -15 -3 -27 -7 -20 -5 -23 -3 -23 19 0 21
-7 27 -40 37 -22 7 -40 16 -40 21 0 4 -8 8 -18 8 -10 0 -34 14 -52 30 -33 30
-60 39 -60 20 0 -5 -7 -7 -16 -3 -11 4 -12 9 -5 16 13 13 15 37 3 37 -4 0 -22
-10 -39 -23z m-198 -77 c-3 -5 -10 -10 -16 -10 -5 0 -9 5 -9 10 0 6 7 10 16
10 8 0 12 -4 9 -10z m-512 -15 c0 -6 -7 -11 -16 -13 -12 -3 -15 1 -11 13 7 17
25 17 27 0z m917 -25 c0 -5 -4 -10 -9 -10 -6 0 -13 5 -16 10 -3 6 1 10 9 10 9
0 16 -4 16 -10z m-181 -60 c4 0 16 9 26 20 23 26 32 25 41 -2 4 -13 11 -26 16
-29 13 -8 -2 -39 -19 -39 -10 0 -12 6 -8 20 4 11 2 20 -4 20 -6 0 -15 -9 -21
-20 -14 -26 -56 -26 -69 -1 -8 14 -7 22 4 31 8 7 16 20 16 29 1 9 4 6 6 -6 2
-13 8 -23 12 -23z m-809 20 c0 -5 -4 -10 -9 -10 -6 0 -13 5 -16 10 -3 6 1 10
9 10 9 0 16 -4 16 -10z m400 -26 c0 -14 -4 -23 -10 -19 -5 3 -10 15 -10 26 0
10 5 19 10 19 6 0 10 -12 10 -26z"/>
<path d="M1960 4260 c0 -11 5 -20 10 -20 6 0 10 9 10 20 0 11 -4 20 -10 20 -5
0 -10 -9 -10 -20z"/>
<path d="M2075 4238 c5 -19 3 -28 -3 -24 -5 3 -12 -1 -16 -9 -10 -26 -29 -17
-22 10 6 23 3 22 -30 -12 -50 -52 -88 -103 -82 -108 3 -3 28 0 57 7 43 9 50
15 45 30 -4 15 0 18 31 18 20 0 44 -4 53 -9 10 -5 27 -5 41 0 18 7 22 14 17
34 -5 20 -3 25 13 25 12 0 20 9 23 25 6 31 -4 38 -40 31 -15 -4 -42 -2 -60 3
l-33 10 6 -31z"/>
<path d="M2238 4203 c-14 -34 -14 -39 0 -47 18 -10 46 20 38 41 -3 8 2 13 13
13 10 0 23 6 29 13 9 10 3 14 -26 15 -34 2 -38 0 -54 -35z"/>
<path d="M1549 4014 c-11 -14 -10 -15 11 -12 13 1 25 9 28 16 5 17 -23 15 -39
-4z"/>
<path d="M1136 3499 c-22 -27 -16 -33 18 -18 23 11 29 9 49 -8 12 -11 31 -23
42 -25 11 -3 28 -9 38 -13 13 -5 17 -2 17 12 0 28 -48 59 -101 66 -38 5 -48 3
-63 -14z"/>
<path d="M4270 2921 c0 -4 -10 -7 -22 -6 -13 1 -15 0 -5 -2 9 -2 17 -11 17
-19 0 -8 4 -14 9 -14 14 0 33 28 26 40 -8 12 -25 13 -25 1z"/>
<path d="M4170 2890 c0 -5 5 -10 10 -10 6 0 10 -7 10 -15 0 -8 5 -15 10 -15
15 0 12 16 -6 34 -18 19 -24 20 -24 6z"/>
<path d="M796 1135 c18 -27 34 -25 34 6 0 14 -7 19 -25 19 -25 0 -25 -1 -9
-25z"/>
<path d="M4008 653 c6 -2 18 -2 25 0 6 3 1 5 -13 5 -14 0 -19 -2 -12 -5z"/>
<path d="M3885 120 c-14 -22 -12 -120 2 -120 6 0 14 6 16 13 4 10 6 10 6 0 2
-33 65 2 66 36 1 22 -35 61 -56 61 -9 0 -19 5 -21 12 -3 9 -7 8 -13 -2z"/>
</g>
</svg>
